<?xml version="1.0" standalone="no"?>
<!DOCTYPE svg PUBLIC "-//W3C//DTD SVG 1.1//EN" "http://www.w3.org/Graphics/SVG/1.1/DTD/svg11.dtd">
<svg xmlns="http://www.w3.org/2000/svg" id="Layer_2" viewBox="0 0 299.31 56.13" width="299.30999755859375" height="56.130001068115234">
  <g id="Layer_1-2" data-name="Layer_1">
    <g>
      <path d="M164.34,25v-9.45h-8.95v9.45h-5.11V2.69h5.11v8.78h8.95V2.69h5.08v22.31h-5.08ZM179.97,22.48c2.14,0,2.99-1.2,3.35-3.43l4.11,1.2c-.76,3.08-3.35,5.17-7.63,5.17-4.87,0-7.93-3.23-7.93-8.22s3.2-8.22,7.87-8.22c4.96,0,7.54,3.14,7.57,8.86h-10.51c.12,3.17,1.23,4.64,3.17,4.64ZM179.76,12.03c-1.61,0-2.55,1.29-2.88,3.58h5.64c-.15-2.44-.97-3.58-2.76-3.58ZM194.46,15.31l-4.2-.76c-.06-.24-.09-.62-.09-.88,0-3.49,3.52-4.7,6.6-4.7,4.17,0,6.46,1.41,6.46,4.64v7.31c0,1.06.41,1.47,1.2,1.47.44,0,.79-.12,1.06-.21v2.38c-.47.44-1.61.85-2.96.85-1.56,0-2.85-.62-3.38-1.64-.12-.23-.18-.47-.21-.73h-.21c-.56,1.06-2.17,2.38-4.73,2.38s-4.7-1.47-4.7-4.29,1.85-3.7,5.22-4.58c2.14-.53,3.2-.85,3.87-1.38v-1.17c0-1.41-.53-2-2-2-1.38,0-2.14.68-2.14,2.05,0,.41.06.85.18,1.26ZM195.72,22.62c1.12,0,2.32-.76,2.7-1.79v-3.2c-.38.29-1.29.59-2.47.97-1.38.41-2.14.82-2.14,2.14,0,1.12.62,1.88,1.91,1.88ZM207.49,25v-15.62h4.49v3.02h.21c.68-2.03,2.35-3.43,4.17-3.43,1.94,0,3.58.97,3.58,3.79,0,.91-.21,1.76-.56,2.52l-3.85.09c.18-.56.29-1.09.29-1.91s-.35-1.23-1.14-1.23c-1.67,0-2.41,1.88-2.41,5.28v7.48h-4.78ZM223.11,21.3v-8.69h-2.41v-3.23h2.41V3.92h4.78v5.46h4.34v3.23h-4.34v8.19c0,.91.38,1.29,1.23,1.29,1.14,0,1.32-.62,1.32-1.88,0-.56-.09-1.12-.15-1.41l2.47.32c.18.35.38,1.5.38,2.2,0,2.14-1.12,4.08-5.05,4.08-2.79,0-4.99-.91-4.99-4.11ZM238.61,25h-3.35V2.69h4.64v9.22h.26c.79-1.94,2.61-2.94,4.78-2.94,3.43,0,6.43,2.41,6.43,8.22s-3.61,8.22-6.87,8.22c-2.26,0-4.02-1.03-4.96-2.82h-.29l-.65,2.41ZM240.05,17.16c0,3.35,1.17,5.14,3.23,5.14s3.2-1.64,3.2-5.11-1.09-5.11-3.23-5.11c-1.88,0-3.2,1.61-3.2,5.08ZM261.29,22.48c2.14,0,2.99-1.2,3.35-3.43l4.11,1.2c-.76,3.08-3.35,5.17-7.63,5.17-4.87,0-7.93-3.23-7.93-8.22s3.2-8.22,7.87-8.22c4.96,0,7.54,3.14,7.57,8.86h-10.51c.12,3.17,1.23,4.64,3.17,4.64ZM261.09,12.03c-1.61,0-2.55,1.29-2.88,3.58h5.64c-.15-2.44-.97-3.58-2.76-3.58ZM275.78,15.31l-4.2-.76c-.06-.24-.09-.62-.09-.88,0-3.49,3.52-4.7,6.6-4.7,4.17,0,6.46,1.41,6.46,4.64v7.31c0,1.06.41,1.47,1.2,1.47.44,0,.79-.12,1.06-.21v2.38c-.47.44-1.61.85-2.96.85-1.56,0-2.85-.62-3.38-1.64-.12-.23-.18-.47-.21-.73h-.21c-.56,1.06-2.17,2.38-4.73,2.38s-4.7-1.47-4.7-4.29,1.85-3.7,5.22-4.58c2.14-.53,3.2-.85,3.87-1.38v-1.17c0-1.41-.53-2-2-2-1.38,0-2.14.68-2.14,2.05,0,.41.06.85.18,1.26ZM277.04,22.62c1.12,0,2.32-.76,2.7-1.79v-3.2c-.38.29-1.29.59-2.47.97-1.38.41-2.14.82-2.14,2.14,0,1.12.62,1.88,1.91,1.88ZM289.27,21.3v-8.69h-2.41v-3.23h2.41V3.92h4.78v5.46h4.34v3.23h-4.34v8.19c0,.91.38,1.29,1.23,1.29,1.14,0,1.32-.62,1.32-1.88,0-.56-.09-1.12-.15-1.41l2.47.32c.18.35.38,1.5.38,2.2,0,2.14-1.12,4.08-5.05,4.08-2.79,0-4.99-.91-4.99-4.11Z"/>
      <path d="M159.53,31.85c5.34,0,8.42,2.91,9.36,7.07l-4.52,1.85c-.5-3.43-2.08-5.08-4.81-5.08-3.52,0-5.43,3.02-5.43,7.75s1.91,7.75,5.69,7.75,5.02-2.82,5.28-5.9l4.64,1.82c-.85,4.02-3.9,7.9-9.98,7.9-7.16,0-11.04-5.17-11.04-11.56s3.93-11.59,10.8-11.59ZM171.51,54.6v-22.31h4.49v9.69h.21c.82-2.44,2.76-3.4,4.99-3.4,3.58,0,5.08,1.91,5.08,5.05v10.98h-4.78v-10.48c0-1.53-.7-2.29-2.14-2.29-1.97,0-3.05,1.44-3.05,4.26v8.51h-4.78ZM203.32,38.98v15.62h-4.26v-2.67h-.26c-.88,2.2-2.88,3.08-5.02,3.08-3.52,0-5.22-1.79-5.22-5.19v-10.83h4.78v10.39c0,1.59.85,2.38,2.23,2.38,1.85,0,2.96-1.2,2.96-4.05v-8.72h4.78ZM205.71,54.6v-15.62h4.49v3.02h.21c.67-2.03,2.35-3.43,4.17-3.43,1.94,0,3.58.97,3.58,3.79,0,.91-.21,1.76-.56,2.52l-3.85.09c.18-.56.29-1.09.29-1.91s-.35-1.23-1.14-1.23c-1.67,0-2.41,1.88-2.41,5.28v7.48h-4.78ZM219.05,46.79c0-5.02,3.08-8.22,7.9-8.22,4.2,0,6.11,2.38,6.69,5.49l-3.73,1.38c-.29-2.38-1.09-3.61-2.88-3.61-1.97,0-3.08,1.53-3.08,4.96s1.09,5.02,3.17,5.02,2.91-1.47,3.23-3.85l3.73,1.59c-.65,3.2-3.02,5.46-7.13,5.46-4.78,0-7.9-3.23-7.9-8.22ZM235.62,54.6v-22.31h4.49v9.69h.21c.82-2.44,2.76-3.4,4.99-3.4,3.58,0,5.08,1.91,5.08,5.05v10.98h-4.78v-10.48c0-1.53-.7-2.29-2.14-2.29-1.97,0-3.05,1.44-3.05,4.26v8.51h-4.78Z"/>
    </g>
    <g>
      <path d="M93.77,38.55c-5.62-12.6-2.26-27.94,21.56-38.55l11.03,24.75-8.2,3.65.61,1.37,8.2-3.65,11.02,24.72c-23.95,10.67-36.96,4-42.88-9.29l-1.33-2.99Z"/>
      <polygon points="49.83 1.97 25.59 1.97 25.59 10.95 24.1 10.95 24.1 1.97 0 1.97 0 55.8 24.1 55.8 24.1 46.81 25.59 46.81 25.59 55.8 49.83 55.8 49.83 1.97"/>
      <path d="M51.87,55.71V1.89h20.96c6.21,0,15.08,1.6,15.08,12.73,0,10.46-7.43,12.48-10.54,12.48v1.5c6.8,0,16.03,1.74,16.03,13.48s-9.23,13.63-14.2,13.63h-27.34Z"/>
    </g>
  </g>
</svg>